<mxfile host="drawio-plugin" modified="2021-04-04T03:17:36.338Z" agent="5.0 (Macintosh; Intel Mac OS X 10_16_0) AppleWebKit/537.36 (KHTML, like Gecko) Chrome/84.0.4147.105 Safari/537.36" etag="RNhVJ7j4aWEhd1M85ieH" version="13.7.9" type="embed"><diagram id="msZA44HfaNEvac4kEN7L" name="Page-1"><mxGraphModel dx="719" dy="577" grid="0" gridSize="10" guides="1" tooltips="1" connect="1" arrows="1" fold="1" page="1" pageScale="1" pageWidth="850" pageHeight="1100" math="0" shadow="0"><root><mxCell id="0"/><mxCell id="1" parent="0"/><mxCell id="18" value="" style="html=1;" vertex="1" parent="1"><mxGeometry x="130" y="109" width="491" height="515" as="geometry"/></mxCell><mxCell id="17" value="&lt;div style=&quot;text-align: justify&quot;&gt;&lt;span&gt;管理员用例图示&lt;/span&gt;&lt;/div&gt;" style="html=1;align=center;" vertex="1" parent="1"><mxGeometry x="130" y="70" width="491" height="39" as="geometry"/></mxCell><mxCell id="2" value="管理员" style="shape=umlActor;verticalLabelPosition=bottom;verticalAlign=top;html=1;fillColor=#f5f5f5;strokeColor=#666666;fontColor=#333333;" parent="1" vertex="1"><mxGeometry x="181" y="345" width="50" height="80" as="geometry"/></mxCell><mxCell id="3" value="登陆系统" style="ellipse;whiteSpace=wrap;html=1;fillColor=#f5f5f5;strokeColor=#666666;fontColor=#333333;" parent="1" vertex="1"><mxGeometry x="285" y="154" width="140" height="70" as="geometry"/></mxCell><mxCell id="4" value="用户信息管理" style="ellipse;whiteSpace=wrap;html=1;fillColor=#f5f5f5;strokeColor=#666666;fontColor=#333333;" vertex="1" parent="1"><mxGeometry x="331" y="292" width="140" height="70" as="geometry"/></mxCell><mxCell id="5" value="课程信息管理" style="ellipse;whiteSpace=wrap;html=1;fillColor=#f5f5f5;strokeColor=#666666;fontColor=#333333;" vertex="1" parent="1"><mxGeometry x="282" y="490" width="140" height="70" as="geometry"/></mxCell><mxCell id="12" value="" style="endArrow=open;endFill=1;endSize=12;html=1;exitX=1;exitY=0.3333333333333333;exitDx=0;exitDy=0;exitPerimeter=0;entryX=0.329;entryY=0.986;entryDx=0;entryDy=0;entryPerimeter=0;" edge="1" parent="1" source="2" target="3"><mxGeometry width="160" relative="1" as="geometry"><mxPoint x="290" y="300" as="sourcePoint"/><mxPoint x="450" y="300" as="targetPoint"/></mxGeometry></mxCell><mxCell id="13" value="" style="endArrow=open;endFill=1;endSize=12;html=1;exitX=1;exitY=0.3333333333333333;exitDx=0;exitDy=0;exitPerimeter=0;" edge="1" parent="1" source="2" target="4"><mxGeometry width="160" relative="1" as="geometry"><mxPoint x="290" y="300" as="sourcePoint"/><mxPoint x="450" y="300" as="targetPoint"/></mxGeometry></mxCell><mxCell id="15" value="" style="endArrow=open;endFill=1;endSize=12;html=1;entryX=0;entryY=0.5;entryDx=0;entryDy=0;exitX=1;exitY=0.3333333333333333;exitDx=0;exitDy=0;exitPerimeter=0;" edge="1" parent="1" source="2" target="5"><mxGeometry width="160" relative="1" as="geometry"><mxPoint x="240" y="335" as="sourcePoint"/><mxPoint x="450" y="300" as="targetPoint"/></mxGeometry></mxCell><mxCell id="26" value="查找" style="ellipse;whiteSpace=wrap;html=1;fillColor=#f5f5f5;strokeColor=#666666;fontColor=#333333;" vertex="1" parent="1"><mxGeometry x="493" y="229" width="94" height="45" as="geometry"/></mxCell><mxCell id="27" value="新增" style="ellipse;whiteSpace=wrap;html=1;fillColor=#f5f5f5;strokeColor=#666666;fontColor=#333333;" vertex="1" parent="1"><mxGeometry x="444" y="172" width="94" height="45" as="geometry"/></mxCell><mxCell id="29" value="修改" style="ellipse;whiteSpace=wrap;html=1;fillColor=#f5f5f5;strokeColor=#666666;fontColor=#333333;" vertex="1" parent="1"><mxGeometry x="512" y="292" width="94" height="45" as="geometry"/></mxCell><mxCell id="30" value="删除" style="ellipse;whiteSpace=wrap;html=1;fillColor=#f5f5f5;strokeColor=#666666;fontColor=#333333;" vertex="1" parent="1"><mxGeometry x="499" y="359" width="94" height="45" as="geometry"/></mxCell><mxCell id="31" value="新增" style="ellipse;whiteSpace=wrap;html=1;fillColor=#f5f5f5;strokeColor=#666666;fontColor=#333333;" vertex="1" parent="1"><mxGeometry x="356" y="389" width="94" height="45" as="geometry"/></mxCell><mxCell id="32" value="查找" style="ellipse;whiteSpace=wrap;html=1;fillColor=#f5f5f5;strokeColor=#666666;fontColor=#333333;" vertex="1" parent="1"><mxGeometry x="459" y="432" width="94" height="45" as="geometry"/></mxCell><mxCell id="33" value="修改" style="ellipse;whiteSpace=wrap;html=1;fillColor=#f5f5f5;strokeColor=#666666;fontColor=#333333;" vertex="1" parent="1"><mxGeometry x="505" y="505" width="94" height="45" as="geometry"/></mxCell><mxCell id="34" value="删除" style="ellipse;whiteSpace=wrap;html=1;fillColor=#f5f5f5;strokeColor=#666666;fontColor=#333333;" vertex="1" parent="1"><mxGeometry x="436" y="565" width="94" height="45" as="geometry"/></mxCell><mxCell id="35" value="&lt;font style=&quot;font-size: 8px&quot;&gt;&amp;lt;&amp;lt;包含&amp;gt;&amp;gt;&lt;/font&gt;" style="endArrow=open;endSize=12;dashed=1;html=1;exitX=0.5;exitY=0;exitDx=0;exitDy=0;entryX=0;entryY=1;entryDx=0;entryDy=0;" edge="1" parent="1" source="4" target="27"><mxGeometry width="160" relative="1" as="geometry"><mxPoint x="289" y="406" as="sourcePoint"/><mxPoint x="449" y="406" as="targetPoint"/></mxGeometry></mxCell><mxCell id="36" value="&lt;font style=&quot;font-size: 8px&quot;&gt;&amp;lt;&amp;lt;包含&amp;gt;&amp;gt;&lt;/font&gt;" style="endArrow=open;endSize=12;dashed=1;html=1;exitX=1;exitY=0;exitDx=0;exitDy=0;entryX=0;entryY=1;entryDx=0;entryDy=0;" edge="1" parent="1" source="4" target="26"><mxGeometry width="160" relative="1" as="geometry"><mxPoint x="411" y="302" as="sourcePoint"/><mxPoint x="467.3946865563862" y="220.2301467182873" as="targetPoint"/></mxGeometry></mxCell><mxCell id="37" value="&lt;font style=&quot;font-size: 8px&quot;&gt;&amp;lt;&amp;lt;包含&amp;gt;&amp;gt;&lt;/font&gt;" style="endArrow=open;endSize=12;dashed=1;html=1;exitX=1;exitY=0.5;exitDx=0;exitDy=0;entryX=0;entryY=0.5;entryDx=0;entryDy=0;" edge="1" parent="1" source="4" target="29"><mxGeometry width="160" relative="1" as="geometry"><mxPoint x="421" y="312" as="sourcePoint"/><mxPoint x="477.3946865563862" y="230.2301467182873" as="targetPoint"/></mxGeometry></mxCell><mxCell id="38" value="&lt;font style=&quot;font-size: 8px&quot;&gt;&amp;lt;&amp;lt;包含&amp;gt;&amp;gt;&lt;/font&gt;" style="endArrow=open;endSize=12;dashed=1;html=1;exitX=1;exitY=1;exitDx=0;exitDy=0;entryX=0;entryY=0;entryDx=0;entryDy=0;" edge="1" parent="1" source="4" target="30"><mxGeometry width="160" relative="1" as="geometry"><mxPoint x="431" y="322" as="sourcePoint"/><mxPoint x="487.3946865563862" y="240.2301467182873" as="targetPoint"/></mxGeometry></mxCell><mxCell id="39" value="&lt;font style=&quot;font-size: 8px&quot;&gt;&amp;lt;&amp;lt;包含&amp;gt;&amp;gt;&lt;/font&gt;" style="endArrow=open;endSize=12;dashed=1;html=1;exitX=1;exitY=0;exitDx=0;exitDy=0;entryX=0.5;entryY=1;entryDx=0;entryDy=0;" edge="1" parent="1" source="5" target="31"><mxGeometry width="160" relative="1" as="geometry"><mxPoint x="441" y="332" as="sourcePoint"/><mxPoint x="497.3946865563862" y="250.2301467182873" as="targetPoint"/></mxGeometry></mxCell><mxCell id="40" value="&lt;font style=&quot;font-size: 8px&quot;&gt;&amp;lt;&amp;lt;包含&amp;gt;&amp;gt;&lt;/font&gt;" style="endArrow=open;endSize=12;dashed=1;html=1;exitX=1;exitY=0.5;exitDx=0;exitDy=0;entryX=0;entryY=0.5;entryDx=0;entryDy=0;" edge="1" parent="1" source="5" target="32"><mxGeometry width="160" relative="1" as="geometry"><mxPoint x="451" y="342" as="sourcePoint"/><mxPoint x="507.3946865563862" y="260.2301467182873" as="targetPoint"/></mxGeometry></mxCell><mxCell id="41" value="&lt;font style=&quot;font-size: 8px&quot;&gt;&amp;lt;&amp;lt;包含&amp;gt;&amp;gt;&lt;/font&gt;" style="endArrow=open;endSize=12;dashed=1;html=1;exitX=1;exitY=0.5;exitDx=0;exitDy=0;entryX=0;entryY=0.5;entryDx=0;entryDy=0;" edge="1" parent="1" source="5" target="33"><mxGeometry width="160" relative="1" as="geometry"><mxPoint x="461" y="352" as="sourcePoint"/><mxPoint x="517.3946865563862" y="270.2301467182873" as="targetPoint"/></mxGeometry></mxCell><mxCell id="42" value="&lt;font style=&quot;font-size: 8px&quot;&gt;&amp;lt;&amp;lt;包含&amp;gt;&amp;gt;&lt;/font&gt;" style="endArrow=open;endSize=12;dashed=1;html=1;exitX=1;exitY=0.5;exitDx=0;exitDy=0;entryX=0;entryY=0;entryDx=0;entryDy=0;" edge="1" parent="1" source="5" target="34"><mxGeometry width="160" relative="1" as="geometry"><mxPoint x="471" y="362" as="sourcePoint"/><mxPoint x="527.3946865563862" y="280.2301467182873" as="targetPoint"/></mxGeometry></mxCell></root></mxGraphModel></diagram></mxfile>